{"title":"Holidays.2016.WEBRip.480p.x264.AAC-VYTO [P2PDL]","uid":14345606,"size":428019291,"categoryP":"video","categoryS":"movies","magnet":"?xt=urn:btih:5c3c3fb44a8855ee1248bfae75be1d885b34d9a9&amp;dn=Holidays.2016.WEBRip.480p.x264.AAC-VYTO+%5BP2PDL%5D&amp;tr=udp%3A%2F%2Ftracker.leechers-paradise.org%3A6969&amp;tr=udp%3A%2F%2Fzer0day.ch%3A1337&amp;tr=udp%3A%2F%2Fopen.demonii.com%3A1337&amp;tr=udp%3A%2F%2Ftracker.coppersurfer.tk%3A6969&amp;tr=udp%3A%2F%2Fexodus.desync.com%3A6969","seeders":4,"leechers":0,"uploader":"VYTOP2PDL","files":7,"time":1460790943,"description":"____    ____ ____    ____ .___________.  ______   \r\n     /   /      /   / |           | /  __    \r\n    /   /      /   /  `---|  |----`|  |  |  | \r\n        /     _    _/       |  |     |  |  |  | \r\n       /        |  |         |  |     |  `--'  | \r\n    __/         |__|         |__|      ______/  \r\n                                                  \r\nPresenting Small Encodes with quality for years!\r\n                                                                                                   \r\n                                                                                                   \r\n\r\n\r\nHolidays.2016.WEBRip.480p.x264.AAC-VYTO\r\n\r\n\r\nGenre: Comedy, Horror \nhttp://www.imdb.com/title/tt4419364/\r\n\r\n\r\nFormat                                   : MPEG-4\r\nFile size                                : 401 MiB\r\nDuration                                 : 1h 44mn\r\nOverall bit rate                         : 537 Kbps\r\n\r\nVideo\r\nFormat                                   : AVC\r\nBit rate                                 : 494 Kbps\r\nWidth                                    : 720 pixels\r\nHeight                                   : 400 pixels\r\nDisplay aspect ratio                     : 16:9\r\nFrame rate mode                          : Constant\r\nFrame rate                               : 23.976 fps\r\nBit depth                                : 8 bits\r\nStream size                              : 369 MiB (92%)\r\nWriting library                          : x264 \r\n\r\nAudio\r\nFormat                                   : AAC\r\nBit rate mode                            : Variable\r\nBit rate                                 : 40.0 Kbps\r\nChannel(s)                               : 2 channels\r\nChannel positions                        : Front: L R\r\nSampling rate                            : 48.0 KHz\r\nStream size                              : 29.9 MiB (7%)\r\nLanguage                                 : English\r\n\r\nSubtitle                                 : Yes (English)\r\n\r\nScreen Shots: (Click links to view)\r\n \nhttps://ititli.com/XL8 \nhttps://ititli.com/XLe \nhttps://ititli.com/XLj \nhttps://ititli.com/XLk \nhttps://ititli.com/XLo \nhttps://ititli.com/XLG \nhttps://ititli.com/XLH \nhttps://ititli.com/XLM \nhttps://ititli.com/XLU\r\n\r\n----------------------------------------------------------------------------------------------------\r\n\r\n\r\nEncoder Notes: Looking For Early Access To Anything You Can Provide WEBDL, DVDScr, DVDR, BluRay,\r\nDirect Audio, Music Releases and Seedboxes. If You Got anything to offer please contact us.\r\n\r\nSupport us by donating BC - 1FgwdzPsd1y25Gea8wP1qni35uGCtmkRCD\r\n\r\nFind us and join us!","torrent":{"xt":"urn:btih:5c3c3fb44a8855ee1248bfae75be1d885b34d9a9","amp;dn":"Holidays.2016.WEBRip.480p.x264.AAC-VYTO+%5BP2PDL%5D","amp;tr":["udp%3A%2F%2Ftracker.leechers-paradise.org%3A6969","udp%3A%2F%2Fzer0day.ch%3A1337","udp%3A%2F%2Fopen.demonii.com%3A1337","udp%3A%2F%2Ftracker.coppersurfer.tk%3A6969","udp%3A%2F%2Fexodus.desync.com%3A6969"],"infoHash":"5c3c3fb44a8855ee1248bfae75be1d885b34d9a9","infoHashBuffer":{"type":"Buffer","data":[92,60,63,180,74,136,85,238,18,72,191,174,117,190,29,136,91,52,217,169]},"announce":[],"urlList":[]}}